<?xml version="1.0" encoding="utf-8"?>
<!-- Generator: Adobe Illustrator 24.1.2, SVG Export Plug-In . SVG Version: 6.00 Build 0)  -->
<svg version="1.1" id="Capa_1" xmlns="http://www.w3.org/2000/svg" xmlns:xlink="http://www.w3.org/1999/xlink" x="0px" y="0px"
	 viewBox="0 0 560.3 560.3" style="enable-background:new 0 0 560.3 560.3;" xml:space="preserve">
<style type="text/css">
	.st0{fill:#7374FF;}
</style>
<path class="st0" d="M280,0C205.8,0,134.4,29.4,82.6,82.6C29.4,134.4,0,205.8,0,280s29.4,145.6,82.6,197.4
	C134.4,530.6,205.8,560,280,560c56,0,110.6-16.8,156.8-47.6l98,46.2c15.4,7,30.8-8.4,23.8-23.8l-46.2-98
	C543.2,390.6,560,336,560,280c0-74.2-29.4-145.6-82.6-197.4C425.6,29.4,354.2,0,280,0L280,0z M280,35c64.4,0,127.4,25.2,173.6,71.4
	S525,215.6,525,280c0,51.8-16.8,102.2-47.6,144.2c-4.2,5.6-4.2,12.6-1.4,18.2l29.4,63l-63-29.4c-5.6-2.8-12.6-2.8-18.2,1.4
	c-42,30.8-92.4,47.6-144.2,47.6c-64.4,0-127.4-25.2-173.6-71.4S35,344.4,35,280s25.2-127.4,71.4-173.6S215.6,35,280,35L280,35z"/>
</svg>
