<?xml version="1.0" encoding="UTF-8"?>
<svg width="700pt" height="700pt" version="1.1" viewBox="0 0 700 700" xmlns="http://www.w3.org/2000/svg">
 <path d="m349.83-0.16797c-74.199 0-145.6 29.398-197.4 82.598-53.199 51.801-82.598 123.2-82.598 197.4s29.398 145.6 82.598 197.4c51.801 53.199 123.2 82.598 197.4 82.598 56 0 110.6-16.801 156.8-47.602l98 46.199c15.398 7 30.801-8.3984 23.801-23.801l-46.199-97.992c30.801-46.199 47.602-100.8 47.602-156.8 0-74.199-29.398-145.6-82.598-197.4-51.801-53.199-123.2-82.598-197.4-82.598zm0 35c64.398 0 127.4 25.199 173.6 71.398 46.199 46.199 71.398 109.2 71.398 173.6 0 51.801-16.801 102.2-47.602 144.2-4.1992 5.6016-4.1992 12.602-1.3984 18.199l29.398 63-63-29.398c-5.6016-2.8008-12.602-2.8008-18.199 1.3984-42 30.801-92.398 47.602-144.2 47.602-64.398 0-127.4-25.199-173.6-71.398-46.199-46.199-71.398-109.2-71.398-173.6 0-64.398 25.199-127.4 71.398-173.6s109.2-71.398 173.6-71.398z"/>
</svg>
