<?xml version="1.0" encoding="utf-8"?>
<!-- Generator: Adobe Illustrator 24.1.2, SVG Export Plug-In . SVG Version: 6.00 Build 0)  -->
<svg version="1.1" id="Capa_1" xmlns="http://www.w3.org/2000/svg" xmlns:xlink="http://www.w3.org/1999/xlink" x="0px" y="0px"
	 viewBox="0 0 470.4 492.8" style="enable-background:new 0 0 470.4 492.8;" xml:space="preserve">
<style type="text/css">
	.st0{fill:#4A4BFF;}
</style>
<path class="st0" d="M228.6,2.1l-224,168c-2.8,2.1-4.6,5.6-4.6,9.1v302.4c0,5.9,5.3,11.2,11.2,11.2h151.2c5.9,0,11.2-5.3,11.2-11.2
	V302.4h123.2v179.2c0,5.9,5.3,11.2,11.2,11.2h151.2c5.9,0,11.2-5.3,11.2-11.2V179.2c0-3.5-1.7-7-4.6-9.1l-224-168
	C236.7-0.9,233-0.4,228.6,2.1L228.6,2.1z M235.2,25.2L448,184.8v285.6H319.2V291.2c0-5.9-5.3-11.2-11.2-11.2H162.4
	c-5.9,0-11.2,5.3-11.2,11.2v179.2H22.4V184.8L235.2,25.2z"/>
</svg>
