<?xml version="1.0" encoding="utf-8"?>
<!-- Generator: Adobe Illustrator 24.1.2, SVG Export Plug-In . SVG Version: 6.00 Build 0)  -->
<svg version="1.1" id="Capa_1" xmlns="http://www.w3.org/2000/svg" xmlns:xlink="http://www.w3.org/1999/xlink" x="0px" y="0px"
	 viewBox="0 0 490 385.6" style="enable-background:new 0 0 490 385.6;" xml:space="preserve">
<style type="text/css">
	.st0{fill:#4A4BFF;}
	.st1{fill:#8BFDB6;}
</style>
<path class="st1" d="M36.1,211.9L206.4,383c3.3,3.4,7.8,5.3,12.6,5.3c4.7,0,9.3-1.9,12.5-5.3c3.3-3.4,5.1-8,4.9-12.7V231.6
	c0.1-4.9-1.8-9.7-5.2-13.2s-8.1-5.6-13-5.7c-16,0.2-31.4-6-42.8-17.3c-11.4-11.2-17.8-26.6-17.8-42.6v-5.5c0-2.6,2.1-4.6,4.6-4.6h23
	c13.1,0,25.8,4.2,36.3,12.1c10.4,7.9,18,19,21.5,31.6c0.2,1,1.1,1.8,2.1,1.8s1.9-0.7,2.1-1.8c3.5-12.6,11.1-23.7,21.5-31.6
	c10.4-7.9,23.2-12.2,36.2-12.1h23c2.6,0,4.6,2.1,4.6,4.6v5.5c0,16-6.4,31.4-17.8,42.6c-11.4,11.3-26.8,17.5-42.8,17.3
	c-4.9,0.1-9.6,2.2-13,5.7c-3.4,3.5-5.3,8.3-5.2,13.2v138.6c-0.1,4.7,1.8,9.2,5.1,12.5c3.3,3.3,7.8,5.2,12.5,5.2s9.2-1.9,12.4-5.3
	l169.8-169.9c26.8-26.5,40-63.9,35.6-101.3c-4.4-37.5-25.7-70.8-58-90.5c-32-19.7-71.4-23.3-106.7-10s-62.5,42.2-73.7,78.2
	c-0.8,2.4-3,4.1-5.5,4.1s-4.8-1.6-5.5-4.1c-11.1-36-38.2-65-73.4-78.4s-74.7-9.9-107,9.6C27,39.7,5.5,73,1,110.4
	S9.4,185.3,36.1,211.9L36.1,211.9z"/>
</svg>
