<?xml version="1.0" encoding="utf-8"?>
<!-- Generator: Adobe Illustrator 24.1.2, SVG Export Plug-In . SVG Version: 6.00 Build 0)  -->
<svg version="1.1" id="Capa_1" xmlns="http://www.w3.org/2000/svg" xmlns:xlink="http://www.w3.org/1999/xlink" x="0px" y="0px"
	 viewBox="0 0 426.3 465.2" style="enable-background:new 0 0 426.3 465.2;" xml:space="preserve">
<style type="text/css">
	.st0{fill:#4A4BFF;}
</style>
<path class="st0" d="M192.1,465.2c-14.6,0-25.3-2.1-28.7-2.8c-11.8-0.2-25.1-5.9-40.5-12.6c-22.4-9.7-45.5-19.7-65.7-13.7
	c-0.2,0.1-0.4,0.1-0.5,0.2c-6,1.9-11.8,5.2-17.2,10.4c-2,1.9-4.9,2.7-7.6,2.1c-2.7-0.6-5-2.5-6-5.1L0.6,381.1
	c-1.5-3.7-0.2-8,3.2-10.2c6.9-4.5,67.8-43.8,89-47.1c18.7-2.9,44.5,6.1,64.6,15.1c2-3.2,6-7.8,12.7-9.8c7.2-2.2,15-0.6,23.2,4.8
	c2.5,1.6,4,2.2,4.7,2.4c0,0,0.1-0.1,0.1-0.1c1.4-1.3,4.4-3.9,9.1-3.6c1,0.1,2,0.3,2.9,0.6c-0.4-2.4-0.9-6.1-0.8-11.1
	c-12.5,0.3-22.9-3.5-30.5-11.4c-16-16.4-13.2-44.4-13.1-45.6c0.3-2.5,1.6-4.7,3.7-6.1c2.1-1.4,4.7-1.8,7.1-1
	c19.1,5.8,30.6,21.9,37.1,34.9c1.7-6.3,3.9-13.3,6.9-21c3.2-8.1,5.4-15.3,6.9-22c-8.9,0.3-17-2-23.9-7
	c-18.6-13.5-20.6-41.5-20.7-42.7c-0.2-2.5,0.8-4.9,2.6-6.7c1.8-1.7,4.3-2.5,6.8-2.2c13.9,1.7,24.9,9,33.2,17.3
	c-1.5-4.6-3.4-9.4-5.6-14.5c-10.3-8.7-42.7-39.5-35.8-79c0.7-4.1,4.1-7.2,8.5-6.9c1.6,0,15.8,0.8,28,14.3
	c12.9,14.3,18.2,37,15.8,67.4c2.3,5.4,4.2,10.6,5.8,15.7c7.9-13.2,20.3-27,38.6-32.6c2.4-0.7,5-0.4,7.1,1c2.1,1.4,3.4,3.6,3.7,6.1
	c0.1,1.4,3.4,33.8-15.1,52.7c-8,8.2-18.4,12.5-31.3,13c-1.4,9.7-4.4,20.2-9.1,32.1c-0.7,1.8-1.4,3.6-2,5.3
	c11.9-11.4,29.3-23.5,51.2-22.8c2.5,0.1,4.9,1.2,6.4,3.2c1.6,2,2.2,4.5,1.6,7c-0.3,1.3-7.4,33.2-30.8,45.4
	c-10.8,5.6-22.9,6.2-36.2,1.8c-0.6,9,0.6,13.5,0.6,13.6c0.2,0.9,0.3,1.8,0.3,2.7c3,1.5,5.3,3.9,6.5,5.1c0.9,1,1.6,1.5,2.1,1.8
	c0.6-0.5,1.3-1.2,1.7-1.7c2.1-2.2,8.4-8.7,16-4.5c0.5-0.2,1-0.4,1.4-0.6c2.6-1.2,6.9-3.2,11.6-1.2c1.3,0.5,2.9,1.5,4.3,3.3
	c5.2,2,5.2,7.2,5.2,13.7c0,10.7-4,17.5-7.2,21.2v2.4c19-16.9,52-43.5,70-40.9c4.6,0.6,8.4,2.9,11,6.5c2,2.3,5.5,8,9.6,24.3
	c0.9,3.4-0.5,7.1-3.5,9.1c-0.5,0.3-46.7,31.4-64.9,50.8C258.8,458.2,218.9,465.2,192.1,465.2L192.1,465.2z M164.4,445.6
	c0.7,0,1.4,0.1,2,0.2c2.7,0.6,66.5,15.5,112.5-33.7c16-17,50-41.1,62.8-49.9c-2.4-8.2-4-11-4.4-11.7c-0.3-0.3-0.6-0.7-0.9-1.1
	c-7.9-1.4-39.3,20.4-66.5,46.3c-0.4,0.3-0.7,0.6-1.1,0.9c-9.5,18.6-63,27.7-75.5,25.1c-7.1-1.5-13.5-4.7-19.2-7.5
	c-6.8-3.4-12.7-6.3-18-5.9c-4.6,0.4-8.7-3-9.1-7.6c-0.4-4.6,3-8.7,7.6-9.1c10-0.9,18.7,3.4,27,7.5c5.3,2.6,10.2,5.1,15.2,6.1
	c10.5,2.2,50.3-7.9,56.5-15.4c-0.1-0.1-0.3-0.3-0.5-0.4c-8.7-7.4-18.9-8.5-31.7-9.9c-13.4-1.5-28.5-3.1-45.1-12.5
	c-33-18.7-64.6-29.1-80.5-26.7c-9.4,1.4-34.4,15.1-57,28.7l21.1,49.3c24.3-3.9,49.8,7.2,70.1,16c13.3,5.8,25.8,11.2,34.3,11.2
	C164.1,445.6,164.2,445.6,164.4,445.6L164.4,445.6z M18.8,381.3L37.3,427c2-1.3,4.1-2.5,6.2-3.5L23.9,378
	C22.2,379.1,20.4,380.2,18.8,381.3L18.8,381.3z M172.9,346.4c4.7,2.4,8.6,4.6,11.3,6.1c13.6,7.7,26.3,9.1,38.7,10.4
	c9.8,1.1,19.8,2.2,29.3,6.5V368c0-2.7,1.3-5.3,3.5-6.9c0,0,3.4-3,3.6-10.3c-2.7,1-6.2,1.8-10,0.7c-2.6,2.7-6.8,6.8-13.3,6.8h0
	c-4.1,0-8.1-1.6-12-5c-1.3,1.7-3.2,3.2-6,3.7c-6,1.1-10.1-3.3-12.2-5.8c-6.1,3.5-13,2.4-21.8-3.3c-3.7-2.4-6.9-3.4-9-2.8
	C174.2,345.4,173.5,345.9,172.9,346.4L172.9,346.4z M182.8,280.1c1,6.7,3.2,14.1,8,19c2.6,2.6,5.7,4.4,9.5,5.4
	C197,296.8,191.4,286.8,182.8,280.1L182.8,280.1z M238.2,303.7c6.1,1,11.6,0.2,16.5-2.4c9-4.7,14.8-14.4,18.2-22.3
	C257.5,283.2,245.3,295.2,238.2,303.7L238.2,303.7z M202.2,212.1c2.1,6.4,5.6,13.4,11.1,17.4c3,2.1,6.4,3.4,10.2,3.7
	C219,226.2,211.8,217.3,202.2,212.1L202.2,212.1z M274.6,194.4c-13.3,8.8-21.2,24.1-25.3,34.3c6.1-1,11-3.4,14.9-7.4
	C271.4,214.1,273.9,203,274.6,194.4L274.6,194.4z M199.9,127.6c0.5,17.8,11,33.3,20,43.4c-0.7-16.5-4.8-29.1-11.9-37.1
	C205.3,130.9,202.4,128.9,199.9,127.6L199.9,127.6z M134.4,407.9c-0.3,0-0.5,0-0.8,0c-0.1,0-7.6-0.7-17.7-0.1
	c-4.7,0.3-8.6-3.3-8.9-7.9c-0.3-4.6,3.2-8.6,7.9-8.9c11.5-0.7,19.9,0.1,20.3,0.1c4.6,0.4,8,4.5,7.6,9.1
	C142.4,404.6,138.7,407.9,134.4,407.9L134.4,407.9z M325.8,141.9c-29.7,0-70.9-22-83.7-29.2c-13.6-7.7-26.3-9.1-38.7-10.4
	c-13.8-1.5-28.1-3.1-40.8-13.8c-0.4-0.3-0.7-0.6-1.1-1c-17.9,16.3-54.8,47.4-74.3,44.8c-4.6-0.6-8.4-2.9-11-6.5
	c-2-2.3-5.5-8-9.6-24.3c-0.9-3.4,0.5-7.1,3.5-9.1c0.5-0.3,46.7-31.4,64.9-50.8C185.1-12,253.2,0.7,262.9,2.8
	C274.7,3,288,8.7,303.3,15.4c21.3,9.2,43.1,18.7,62.6,14.5c0.5-0.1,0.9-0.3,1.4-0.3c6.8-1.7,13.4-5.2,19.5-11c2-1.9,4.9-2.7,7.6-2.1
	c2.7,0.6,5,2.5,6,5.1l25.3,62.6c1.5,3.7,0.2,8-3.2,10.2c-6.9,4.5-67.8,43.8-89,47.1C331,141.7,328.5,141.9,325.8,141.9L325.8,141.9z
	 M173.1,75.2c0.1,0.1,0.3,0.3,0.5,0.4c8.7,7.4,18.9,8.5,31.7,9.9c13.4,1.5,28.6,3.1,45.1,12.5c33,18.7,64.6,29.1,80.5,26.7
	c9-1.4,32.4-14,54.2-27.1l-21.8-50.5c-23.3,2.4-47.3-8-66.7-16.4C283.2,25,270.5,19.4,262,19.6c-0.7,0-1.5-0.1-2.2-0.2
	c-2.7-0.7-66.5-15.5-112.5,33.7c-16,17-50,41.1-62.8,49.9c2.4,8.2,4,11,4.4,11.7c0.3,0.3,0.6,0.7,0.9,1.1
	c7.8,1.4,39.3-20.4,66.5-46.3c0.4-0.3,0.7-0.6,1.1-0.9c9.5-18.6,63.1-27.7,75.5-25.1c7.1,1.5,13.5,4.7,19.2,7.5
	c6.9,3.4,12.8,6.3,18,5.9c4.6-0.5,8.7,3,9.1,7.6c0.4,4.6-3,8.7-7.6,9.1c-10,0.9-18.7-3.4-27.1-7.5c-5.2-2.6-10.2-5.1-15.2-6.1
	C219,57.6,179.2,67.7,173.1,75.2L173.1,75.2z M379.8,43.1l19.8,45.8c2.7-1.7,5.4-3.4,7.9-4.9L389,38.2
	C386,40.2,382.9,41.8,379.8,43.1L379.8,43.1z M301.8,74.5c-6.4,0-10.5-0.4-10.8-0.4c-4.6-0.4-8-4.5-7.6-9.1c0.4-4.6,4.5-8.1,9.1-7.6
	c0.1,0,7.6,0.7,17.7,0.1c4.7-0.2,8.6,3.3,8.9,7.9c0.3,4.6-3.3,8.6-7.9,8.9C307.8,74.4,304.6,74.5,301.8,74.5L301.8,74.5z"/>
</svg>
