<?xml version="1.0" encoding="UTF-8"?>
<svg width="700pt" height="700pt" version="1.1" viewBox="0 0 700 700" xmlns="http://www.w3.org/2000/svg" xmlns:xlink="http://www.w3.org/1999/xlink">
 <defs>
  <symbol id="u" overflow="visible">
   <path d="m18.766-1.125c-0.96875 0.5-1.9805 0.875-3.0312 1.125-1.043 0.25781-2.1367 0.39062-3.2812 0.39062-3.3984 0-6.0898-0.94531-8.0781-2.8438-1.9922-1.9062-2.9844-4.4844-2.9844-7.7344 0-3.2578 0.99219-5.8359 2.9844-7.7344 1.9883-1.9062 4.6797-2.8594 8.0781-2.8594 1.1445 0 2.2383 0.13281 3.2812 0.39062 1.0508 0.25 2.0625 0.625 3.0312 1.125v4.2188c-0.98047-0.65625-1.9453-1.1406-2.8906-1.4531-0.94922-0.3125-1.9492-0.46875-3-0.46875-1.875 0-3.3516 0.60547-4.4219 1.8125-1.0742 1.1992-1.6094 2.8555-1.6094 4.9688 0 2.1055 0.53516 3.7617 1.6094 4.9688 1.0703 1.1992 2.5469 1.7969 4.4219 1.7969 1.0508 0 2.0508-0.14844 3-0.45312 0.94531-0.3125 1.9102-0.80078 2.8906-1.4688z"/>
  </symbol>
  <symbol id="b" overflow="visible">
   <path d="m13.734-11.141c-0.4375-0.19531-0.87109-0.34375-1.2969-0.4375-0.41797-0.10156-0.83984-0.15625-1.2656-0.15625-1.2617 0-2.2305 0.40625-2.9062 1.2188-0.67969 0.80469-1.0156 1.9531-1.0156 3.4531v7.0625h-4.8906v-15.312h4.8906v2.5156c0.625-1 1.3438-1.7266 2.1562-2.1875 0.82031-0.46875 1.8008-0.70312 2.9375-0.70312 0.16406 0 0.34375 0.011719 0.53125 0.03125 0.19531 0.011719 0.47656 0.039062 0.84375 0.078125z"/>
  </symbol>
  <symbol id="a" overflow="visible">
   <path d="m17.641-7.7031v1.4062h-11.453c0.125 1.1484 0.53906 2.0078 1.25 2.5781 0.70703 0.57422 1.7031 0.85938 2.9844 0.85938 1.0312 0 2.082-0.14844 3.1562-0.45312 1.082-0.3125 2.1914-0.77344 3.3281-1.3906v3.7656c-1.1562 0.4375-2.3125 0.76562-3.4688 0.98438-1.1562 0.22656-2.3125 0.34375-3.4688 0.34375-2.7734 0-4.9297-0.70312-6.4688-2.1094-1.5312-1.4062-2.2969-3.3789-2.2969-5.9219 0-2.5 0.75391-4.4609 2.2656-5.8906 1.5078-1.4375 3.582-2.1562 6.2188-2.1562 2.4062 0 4.332 0.73047 5.7812 2.1875 1.4453 1.4492 2.1719 3.3828 2.1719 5.7969zm-5.0312-1.625c0-0.92578-0.27344-1.6719-0.8125-2.2344-0.54297-0.57031-1.25-0.85938-2.125-0.85938-0.94922 0-1.7188 0.26562-2.3125 0.79688s-0.96484 1.2969-1.1094 2.2969z"/>
  </symbol>
  <symbol id="f" overflow="visible">
   <path d="m9.2188-6.8906c-1.0234 0-1.793 0.17188-2.3125 0.51562-0.51172 0.34375-0.76562 0.85547-0.76562 1.5312 0 0.625 0.20703 1.1172 0.625 1.4688 0.41406 0.34375 0.98828 0.51562 1.7188 0.51562 0.92578 0 1.7031-0.32812 2.3281-0.98438 0.63281-0.66406 0.95312-1.4922 0.95312-2.4844v-0.5625zm7.4688-1.8438v8.7344h-4.9219v-2.2656c-0.65625 0.92969-1.3984 1.6055-2.2188 2.0312-0.82422 0.41406-1.8242 0.625-3 0.625-1.5859 0-2.8711-0.45703-3.8594-1.375-0.99219-0.92578-1.4844-2.1289-1.4844-3.6094 0-1.7891 0.61328-3.1016 1.8438-3.9375 1.2383-0.84375 3.1797-1.2656 5.8281-1.2656h2.8906v-0.39062c0-0.76953-0.30859-1.332-0.92188-1.6875-0.61719-0.36328-1.5703-0.54688-2.8594-0.54688-1.0547 0-2.0312 0.10547-2.9375 0.3125-0.89844 0.21094-1.7305 0.52344-2.5 0.9375v-3.7344c1.0391-0.25 2.0859-0.44141 3.1406-0.57812 1.0625-0.13281 2.125-0.20312 3.1875-0.20312 2.7578 0 4.75 0.54688 5.9688 1.6406 1.2266 1.0859 1.8438 2.8555 1.8438 5.3125z"/>
  </symbol>
  <symbol id="d" overflow="visible">
   <path d="m7.7031-19.656v4.3438h5.0469v3.5h-5.0469v6.5c0 0.71094 0.14062 1.1875 0.42188 1.4375s0.83594 0.375 1.6719 0.375h2.5156v3.5h-4.1875c-1.9375 0-3.3125-0.39844-4.125-1.2031-0.80469-0.8125-1.2031-2.1797-1.2031-4.1094v-6.5h-2.4219v-3.5h2.4219v-4.3438z"/>
  </symbol>
  <symbol id="k" overflow="visible">
   <path d="m12.766-13.078v-8.2031h4.9219v21.281h-4.9219v-2.2188c-0.66797 0.90625-1.4062 1.5703-2.2188 1.9844s-1.7578 0.625-2.8281 0.625c-1.8867 0-3.4336-0.75-4.6406-2.25-1.2109-1.5-1.8125-3.4258-1.8125-5.7812 0-2.3633 0.60156-4.2969 1.8125-5.7969 1.207-1.5 2.7539-2.25 4.6406-2.25 1.0625 0 2 0.21484 2.8125 0.64062 0.82031 0.42969 1.5664 1.0859 2.2344 1.9688zm-3.2188 9.9219c1.0391 0 1.8359-0.37891 2.3906-1.1406 0.55078-0.76953 0.82812-1.8828 0.82812-3.3438 0-1.457-0.27734-2.5664-0.82812-3.3281-0.55469-0.76953-1.3516-1.1562-2.3906-1.1562-1.043 0-1.8398 0.38672-2.3906 1.1562-0.55469 0.76172-0.82812 1.8711-0.82812 3.3281 0 1.4609 0.27344 2.5742 0.82812 3.3438 0.55078 0.76172 1.3477 1.1406 2.3906 1.1406z"/>
  </symbol>
  <symbol id="j" overflow="visible">
   <path d="m10.5-3.1562c1.0508 0 1.8516-0.37891 2.4062-1.1406 0.55078-0.76953 0.82812-1.8828 0.82812-3.3438 0-1.457-0.27734-2.5664-0.82812-3.3281-0.55469-0.76953-1.3555-1.1562-2.4062-1.1562-1.0547 0-1.8594 0.38672-2.4219 1.1562-0.55469 0.77344-0.82812 1.8828-0.82812 3.3281 0 1.4492 0.27344 2.5586 0.82812 3.3281 0.5625 0.77344 1.3672 1.1562 2.4219 1.1562zm-3.25-9.9219c0.67578-0.88281 1.4219-1.5391 2.2344-1.9688 0.82031-0.42578 1.7656-0.64062 2.8281-0.64062 1.8945 0 3.4453 0.75 4.6562 2.25 1.207 1.5 1.8125 3.4336 1.8125 5.7969 0 2.3555-0.60547 4.2812-1.8125 5.7812-1.2109 1.5-2.7617 2.25-4.6562 2.25-1.0625 0-2.0078-0.21094-2.8281-0.625-0.8125-0.42578-1.5586-1.0859-2.2344-1.9844v2.2188h-4.8906v-21.281h4.8906z"/>
  </symbol>
  <symbol id="i" overflow="visible">
   <path d="m0.34375-15.312h4.8906l4.125 10.391 3.5-10.391h4.8906l-6.4375 16.766c-0.64844 1.6953-1.4023 2.8828-2.2656 3.5625-0.86719 0.6875-2 1.0312-3.4062 1.0312h-2.8438v-3.2188h1.5312c0.83203 0 1.4375-0.13672 1.8125-0.40625 0.38281-0.26172 0.67969-0.73047 0.89062-1.4062l0.14062-0.42188z"/>
  </symbol>
  <symbol id="h" overflow="visible">
   <path d="m2.5781-20.406h5.25v20.406h-5.25z"/>
  </symbol>
  <symbol id="e" overflow="visible">
   <path d="m14.719-14.828v3.9844c-0.65625-0.45703-1.3242-0.79688-2-1.0156-0.66797-0.21875-1.3594-0.32812-2.0781-0.32812-1.3672 0-2.4336 0.40234-3.2031 1.2031-0.76172 0.79297-1.1406 1.9062-1.1406 3.3438 0 1.4297 0.37891 2.543 1.1406 3.3438 0.76953 0.79297 1.8359 1.1875 3.2031 1.1875 0.75781 0 1.4844-0.10938 2.1719-0.32812 0.6875-0.22656 1.3203-0.56641 1.9062-1.0156v4c-0.76172 0.28125-1.5391 0.48828-2.3281 0.625-0.78125 0.14453-1.5742 0.21875-2.375 0.21875-2.7617 0-4.9219-0.70703-6.4844-2.125-1.5547-1.4141-2.3281-3.3828-2.3281-5.9062 0-2.5312 0.77344-4.5039 2.3281-5.9219 1.5625-1.4141 3.7227-2.125 6.4844-2.125 0.80078 0 1.5938 0.074219 2.375 0.21875 0.78125 0.13672 1.5547 0.35156 2.3281 0.64062z"/>
  </symbol>
  <symbol id="c" overflow="visible">
   <path d="m9.6406-12.188c-1.0859 0-1.9141 0.39062-2.4844 1.1719-0.57422 0.78125-0.85938 1.9062-0.85938 3.375s0.28516 2.5938 0.85938 3.375c0.57031 0.77344 1.3984 1.1562 2.4844 1.1562 1.0625 0 1.875-0.38281 2.4375-1.1562 0.57031-0.78125 0.85938-1.9062 0.85938-3.375s-0.28906-2.5938-0.85938-3.375c-0.5625-0.78125-1.375-1.1719-2.4375-1.1719zm0-3.5c2.6328 0 4.6914 0.71484 6.1719 2.1406 1.4766 1.418 2.2188 3.3867 2.2188 5.9062 0 2.5117-0.74219 4.4805-2.2188 5.9062-1.4805 1.418-3.5391 2.125-6.1719 2.125-2.6484 0-4.7148-0.70703-6.2031-2.125-1.4922-1.4258-2.2344-3.3945-2.2344-5.9062 0-2.5195 0.74219-4.4883 2.2344-5.9062 1.4883-1.4258 3.5547-2.1406 6.2031-2.1406z"/>
  </symbol>
  <symbol id="g" overflow="visible">
   <path d="m17.75-9.3281v9.3281h-4.9219v-7.1406c0-1.3203-0.03125-2.2344-0.09375-2.7344s-0.16797-0.86719-0.3125-1.1094c-0.1875-0.3125-0.44922-0.55469-0.78125-0.73438-0.32422-0.17578-0.69531-0.26562-1.1094-0.26562-1.0234 0-1.8242 0.39844-2.4062 1.1875-0.58594 0.78125-0.875 1.8711-0.875 3.2656v7.5312h-4.8906v-15.312h4.8906v2.2344c0.73828-0.88281 1.5195-1.5391 2.3438-1.9688 0.83203-0.42578 1.75-0.64062 2.75-0.64062 1.7695 0 3.1133 0.54688 4.0312 1.6406 0.91406 1.0859 1.375 2.6562 1.375 4.7188z"/>
  </symbol>
  <symbol id="t" overflow="visible">
   <path d="m0.14062-20.406h18.812v3.9688h-6.7656v16.438h-5.2656v-16.438h-6.7812z"/>
  </symbol>
  <symbol id="s" overflow="visible">
   <path d="m2.3594-21.281h4.8906v11.594l5.625-5.625h5.6875l-7.4688 7.0312 8.0625 8.2812h-5.9375l-5.9688-6.3906v6.3906h-4.8906z"/>
  </symbol>
  <symbol id="r" overflow="visible">
   <path d="m12.422-21.281v3.2188h-2.7031c-0.6875 0-1.1719 0.125-1.4531 0.375-0.27344 0.25-0.40625 0.6875-0.40625 1.3125v1.0625h4.1875v3.5h-4.1875v11.812h-4.8906v-11.812h-2.4375v-3.5h2.4375v-1.0625c0-1.6641 0.46094-2.8984 1.3906-3.7031 0.92578-0.80078 2.3672-1.2031 4.3281-1.2031z"/>
  </symbol>
  <symbol id="q" overflow="visible">
   <path d="m16.547-12.766c0.61328-0.94531 1.3477-1.6719 2.2031-2.1719 0.85156-0.5 1.7891-0.75 2.8125-0.75 1.7578 0 3.0977 0.54688 4.0156 1.6406 0.92578 1.0859 1.3906 2.6562 1.3906 4.7188v9.3281h-4.9219v-7.9844-0.35938c0.007813-0.13281 0.015625-0.32031 0.015625-0.5625 0-1.082-0.16406-1.8633-0.48438-2.3438-0.3125-0.48828-0.82422-0.73438-1.5312-0.73438-0.92969 0-1.6484 0.38672-2.1562 1.1562-0.51172 0.76172-0.77344 1.8672-0.78125 3.3125v7.5156h-4.9219v-7.9844c0-1.6953-0.14844-2.7852-0.4375-3.2656-0.29297-0.48828-0.8125-0.73438-1.5625-0.73438-0.9375 0-1.6641 0.38672-2.1719 1.1562-0.51172 0.76172-0.76562 1.8594-0.76562 3.2969v7.5312h-4.9219v-15.312h4.9219v2.2344c0.60156-0.86328 1.2891-1.5156 2.0625-1.9531 0.78125-0.4375 1.6406-0.65625 2.5781-0.65625 1.0625 0 2 0.25781 2.8125 0.76562 0.8125 0.51172 1.4258 1.2305 1.8438 2.1562z"/>
  </symbol>
  <symbol id="p" overflow="visible">
   <path d="m17.75-9.3281v9.3281h-4.9219v-7.1094c0-1.3438-0.03125-2.2656-0.09375-2.7656s-0.16797-0.86719-0.3125-1.1094c-0.1875-0.3125-0.44922-0.55469-0.78125-0.73438-0.32422-0.17578-0.69531-0.26562-1.1094-0.26562-1.0234 0-1.8242 0.39844-2.4062 1.1875-0.58594 0.78125-0.875 1.8711-0.875 3.2656v7.5312h-4.8906v-21.281h4.8906v8.2031c0.73828-0.88281 1.5195-1.5391 2.3438-1.9688 0.83203-0.42578 1.75-0.64062 2.75-0.64062 1.7695 0 3.1133 0.54688 4.0312 1.6406 0.91406 1.0859 1.375 2.6562 1.375 4.7188z"/>
  </symbol>
  <symbol id="o" overflow="visible">
   <path d="m2.5781-20.406h5.875l7.4219 14v-14h4.9844v20.406h-5.875l-7.4219-14v14h-4.9844z"/>
  </symbol>
  <symbol id="n" overflow="visible">
   <path d="m2.1875-5.9688v-9.3438h4.9219v1.5312c0 0.83594-0.007813 1.875-0.015625 3.125-0.011719 1.25-0.015625 2.0859-0.015625 2.5 0 1.2422 0.03125 2.1328 0.09375 2.6719 0.070313 0.54297 0.17969 0.93359 0.32812 1.1719 0.20703 0.32422 0.47266 0.57422 0.79688 0.75 0.32031 0.16797 0.69141 0.25 1.1094 0.25 1.0195 0 1.8203-0.39062 2.4062-1.1719 0.58203-0.78125 0.875-1.8672 0.875-3.2656v-7.5625h4.8906v15.312h-4.8906v-2.2188c-0.74219 0.89844-1.5234 1.5586-2.3438 1.9844-0.82422 0.41406-1.7344 0.625-2.7344 0.625-1.7617 0-3.1055-0.53906-4.0312-1.625-0.92969-1.082-1.3906-2.6602-1.3906-4.7344z"/>
  </symbol>
  <symbol id="m" overflow="visible">
   <path d="m2.5781-20.406h8.7344c2.5938 0 4.582 0.57812 5.9688 1.7344 1.3945 1.1484 2.0938 2.7891 2.0938 4.9219 0 2.1367-0.69922 3.7812-2.0938 4.9375-1.3867 1.1562-3.375 1.7344-5.9688 1.7344h-3.4844v7.0781h-5.25zm5.25 3.8125v5.7031h2.9219c1.0195 0 1.8047-0.25 2.3594-0.75 0.5625-0.5 0.84375-1.2031 0.84375-2.1094 0-0.91406-0.28125-1.6172-0.84375-2.1094-0.55469-0.48828-1.3398-0.73438-2.3594-0.73438z"/>
  </symbol>
  <symbol id="l" overflow="visible">
   <path d="m2.3594-15.312h4.8906v15.031c0 2.0508-0.49609 3.6172-1.4844 4.7031-0.98047 1.082-2.4062 1.625-4.2812 1.625h-2.4219v-3.2188h0.85938c0.92578 0 1.5625-0.21094 1.9062-0.625 0.35156-0.41797 0.53125-1.2461 0.53125-2.4844zm0-5.9688h4.8906v4h-4.8906z"/>
  </symbol>
 </defs>
 <g>
  <path d="m325.61 515.75c-14.617 0-25.312-2.0664-28.734-2.8242-11.82-0.15625-25.133-5.9258-40.48-12.57-22.438-9.7227-45.465-19.711-65.684-13.715-0.17969 0.0625-0.35156 0.11719-0.53906 0.16406-6.0273 1.8711-11.801 5.1875-17.227 10.371-2.0156 1.9258-4.8672 2.7227-7.5703 2.1406-2.7227-0.58203-4.9766-2.4805-6.0195-5.0625l-25.277-62.574c-1.5078-3.7305-0.16406-7.9961 3.2031-10.188 6.8828-4.4805 67.809-43.848 88.973-47.098 18.688-2.9062 44.543 6.0977 64.602 15.121 2.043-3.1523 6.0469-7.8359 12.652-9.832 7.1719-2.1797 14.953-0.56641 23.152 4.7695 2.4961 1.6289 4.0039 2.2188 4.7266 2.4375 0.042969-0.039062 0.089844-0.085937 0.12891-0.11719 1.4453-1.2812 4.418-3.9492 9.1211-3.5781 1.0312 0.085937 2 0.30859 2.918 0.64453-0.42578-2.4141-0.85547-6.0938-0.83594-11.07-12.453 0.29297-22.875-3.5352-30.504-11.352-16.016-16.418-13.242-44.402-13.121-45.586 0.26172-2.4922 1.625-4.7383 3.7188-6.1133 2.082-1.3828 4.6797-1.7695 7.0859-1.0312 19.113 5.8281 30.625 21.875 37.066 34.906 1.6523-6.3008 3.8906-13.289 6.9062-20.965 3.1641-8.0742 5.4414-15.293 6.8945-21.98-8.9102 0.3125-17.008-2-23.867-6.9609-18.574-13.457-20.613-41.5-20.688-42.688-0.16406-2.5039 0.80078-4.9453 2.625-6.6602 1.8242-1.7188 4.3281-2.5312 6.8086-2.2188 13.855 1.7422 24.891 9.0273 33.215 17.266-1.4766-4.6484-3.3555-9.418-5.5898-14.465-10.328-8.7031-42.684-39.547-35.773-79.039 0.71875-4.0938 4.082-7.1797 8.4844-6.9492 1.5781 0.039062 15.793 0.77344 27.984 14.34 12.875 14.336 18.184 37.012 15.773 67.418 2.2891 5.3711 4.2266 10.562 5.75 15.676 7.9414-13.188 20.262-26.965 38.625-32.562 2.4023-0.72656 4.9883-0.35156 7.0898 1.0312 2.0898 1.3828 3.4492 3.625 3.7109 6.1133 0.14453 1.3711 3.3672 33.812-15.102 52.742-7.9648 8.1602-18.445 12.5-31.254 12.953-1.4219 9.6836-4.3633 20.172-9.0508 32.129-0.71875 1.8203-1.3789 3.5898-1.9922 5.3203 11.871-11.434 29.301-23.516 51.195-22.848 2.5039 0.050781 4.8555 1.2227 6.4102 3.1875 1.5508 1.9648 2.1523 4.5195 1.625 6.9727-0.29297 1.3477-7.3516 33.176-30.812 45.395-10.77 5.6172-22.938 6.2109-36.199 1.793-0.57031 8.9805 0.62109 13.535 0.64844 13.625 0.24609 0.90234 0.34766 1.8125 0.29688 2.6992 3.0312 1.5195 5.332 3.9023 6.5117 5.1289 0.92578 0.95703 1.6133 1.5 2.0547 1.8047 0.55469-0.48047 1.2617-1.2148 1.7422-1.7188 2.1328-2.2109 8.4062-8.7188 16.023-4.4648 0.45312-0.18359 1.0078-0.4375 1.4219-0.62891 2.5977-1.1758 6.9375-3.1523 11.648-1.1758 1.3008 0.54687 2.8945 1.5195 4.2891 3.2539 5.1797 1.9531 5.1797 7.2031 5.1797 13.699 0 10.711-4.0273 17.539-7.1562 21.234v2.3906c18.984-16.883 51.984-43.469 70.035-40.93 4.5703 0.62891 8.4219 2.9336 10.961 6.5312 2.0156 2.2695 5.4766 7.9961 9.6367 24.297 0.87891 3.4453-0.50391 7.0742-3.4609 9.0547-0.46484 0.3125-46.742 31.434-64.898 50.836-32.398 34.586-72.297 41.52-99.059 41.52zm-27.777-19.621c0.68359 0 1.3594 0.085938 2.0234 0.24609 2.6641 0.64844 66.516 15.527 112.53-33.652 15.953-17.039 49.957-41.055 62.816-49.906-2.3906-8.1641-4.0391-11.039-4.4453-11.664-0.32031-0.33984-0.60547-0.69922-0.86719-1.0859-7.9297-1.3828-39.301 20.371-66.543 46.297-0.35937 0.33984-0.74609 0.64453-1.1406 0.91406-9.4766 18.625-63.039 27.727-75.453 25.145-7.0898-1.4727-13.539-4.6758-19.242-7.5078-6.8477-3.3984-12.734-6.3438-18.043-5.8594-4.582 0.4375-8.707-2.9805-9.1328-7.5938-0.42188-4.6211 2.9805-8.707 7.5977-9.1328 10.012-0.91797 18.68 3.3828 27.047 7.543 5.2539 2.6094 10.207 5.0742 15.176 6.1055 10.496 2.1836 50.316-7.9258 56.5-15.438-0.12891-0.12891-0.29297-0.27344-0.48047-0.44141-8.7266-7.4141-18.867-8.5195-31.711-9.918-13.379-1.457-28.547-3.1133-45.137-12.5-32.973-18.664-64.562-29.133-80.512-26.672-9.3906 1.4453-34.379 15.113-56.969 28.707l21.145 49.285c24.305-3.8789 49.762 7.1562 70.078 15.953 13.281 5.75 25.84 11.188 34.305 11.188 0.14844-0.007812 0.29297-0.011719 0.45703-0.011719zm-145.57-64.301 18.473 45.723c2.0234-1.3203 4.082-2.4805 6.1562-3.5l-19.504-45.461c-1.7617 1.1016-3.4766 2.1875-5.125 3.2383zm154.08-34.848c4.7383 2.4375 8.6055 4.5625 11.262 6.0664 13.57 7.6836 26.332 9.0703 38.672 10.414 9.7812 1.0625 19.801 2.1562 29.305 6.5195v-1.4375c0-2.7227 1.3164-5.2734 3.543-6.8555-0.027344 0 3.4102-2.957 3.6055-10.266-2.6641 0.99609-6.2422 1.8242-10.031 0.72656-2.6211 2.6953-6.8359 6.7578-13.273 6.7656h0.003906c-4.1094 0-8.0547-1.6406-11.969-5.0078-1.293 1.6914-3.1797 3.1875-5.9922 3.7109-5.9648 1.0938-10.102-3.332-12.188-5.8359-6.1328 3.5039-13.016 2.4414-21.789-3.2656-3.6953-2.4023-6.9219-3.3828-9.0312-2.7891-0.82812 0.23828-1.5352 0.71484-2.1172 1.2539zm9.9023-66.297c0.96875 6.6875 3.2305 14.133 8.0312 19.027 2.5547 2.6055 5.6953 4.3867 9.4688 5.3633-3.293-7.6758-8.8867-17.684-17.5-24.391zm55.426 23.602c6.1094 0.96484 11.559 0.16406 16.492-2.4062 8.9609-4.6641 14.75-14.441 18.156-22.316-15.316 4.2344-27.566 16.25-34.648 24.723zm-36.027-91.578c2.0898 6.4297 5.5898 13.379 11.148 17.383 2.957 2.1328 6.3555 3.3555 10.246 3.6797-4.5508-7-11.77-15.914-21.395-21.062zm72.461-17.684c-13.328 8.8086-21.211 24.078-25.266 34.344 6.0977-0.98438 11.02-3.4375 14.906-7.4023 7.1484-7.2852 9.5977-18.391 10.359-26.941zm-74.734-66.84c0.53125 17.809 11 33.281 19.996 43.367-0.72656-16.469-4.7617-29.109-11.91-37.066-2.707-3.0156-5.5547-5.0039-8.0859-6.3008zm-65.461 280.27c-0.25781 0-0.51953-0.011719-0.78516-0.035157-0.074218-0.003906-7.6055-0.6875-17.695-0.078125-4.7031 0.25781-8.6055-3.2578-8.8867-7.8867-0.28125-4.6328 3.2461-8.6133 7.8789-8.8867 11.484-0.67578 19.926 0.089843 20.273 0.125 4.6133 0.4375 8.0039 4.5312 7.5781 9.1445-0.41016 4.3516-4.0781 7.6172-8.3633 7.6172zm191.39-265.96c-29.652 0-70.93-21.969-83.715-29.211-13.574-7.6836-26.336-9.0781-38.68-10.422-13.828-1.5078-28.117-3.0625-40.77-13.816-0.37109-0.32031-0.73438-0.64453-1.0742-0.96875-17.863 16.309-54.828 47.449-74.289 44.766-4.5703-0.62891-8.418-2.9297-10.961-6.5312-2.0234-2.2734-5.4805-8.0039-9.6367-24.305-0.87891-3.4453 0.50391-7.0742 3.457-9.0508 0.46875-0.3125 46.742-31.434 64.898-50.836 50.062-53.508 118.1-40.863 127.79-38.723 11.82 0.15625 25.137 5.9258 40.48 12.57 21.301 9.2227 43.125 18.664 62.57 14.504 0.46094-0.14453 0.91797-0.25391 1.3828-0.32422 6.8477-1.707 13.383-5.1758 19.48-11.004 2.0039-1.9258 4.8672-2.7227 7.5703-2.1406 2.7227 0.58203 4.9766 2.4805 6.0195 5.0625l25.285 62.578c1.5078 3.7305 0.16406 7.9961-3.2031 10.188-6.8828 4.4727-67.816 43.844-88.973 47.098-2.4375 0.38672-4.9883 0.56641-7.6289 0.56641zm-152.77-66.691c0.12891 0.12891 0.29297 0.27344 0.48047 0.44141 8.7266 7.4141 18.867 8.5195 31.707 9.918 13.391 1.457 28.555 3.1094 45.148 12.5 32.961 18.664 64.578 29.102 80.5 26.672 9.0117-1.3906 32.379-14.027 54.215-27.055l-21.766-50.496c-23.27 2.4375-47.312-8.0078-66.684-16.398-13.453-5.8281-26.18-11.453-34.629-11.188-0.72266-0.003906-1.457-0.074219-2.1602-0.24609-2.6758-0.66016-66.527-15.535-112.54 33.652-15.953 17.047-49.957 41.059-62.809 49.906 2.3867 8.1641 4.0312 11.031 4.4414 11.66 0.32031 0.33984 0.60938 0.70703 0.875 1.0938 7.8398 1.3672 39.277-20.371 66.543-46.289 0.35156-0.33984 0.73828-0.64453 1.1367-0.91406 9.4805-18.633 63.086-27.719 75.461-25.145 7.0859 1.4688 13.535 4.6758 19.23 7.5039 6.8555 3.3984 12.812 6.332 18.043 5.8594 4.6406-0.46484 8.707 2.9727 9.1406 7.5938 0.42187 4.6211-2.9805 8.707-7.5938 9.1328-10.008 0.91797-18.68-3.3828-27.059-7.543-5.2461-2.6094-10.203-5.0742-15.164-6.0977-10.562-2.1953-50.34 7.9219-56.52 15.438zm206.78-32.176 19.75 45.824c2.7266-1.6953 5.3594-3.3555 7.8633-4.9492l-18.473-45.73c-2.9922 1.9609-6.0508 3.5625-9.1406 4.8555zm-78.043 31.414c-6.3672 0-10.527-0.37891-10.773-0.40234-4.6133-0.42969-8.0039-4.5234-7.5781-9.1406 0.42578-4.6133 4.4648-8.0547 9.1406-7.582 0.085937 0.011719 7.6094 0.6875 17.707 0.078125 4.7383-0.24219 8.6055 3.2656 8.8828 7.8867 0.28125 4.6328-3.2539 8.6133-7.8867 8.8867-3.4883 0.20312-6.7031 0.27344-9.4922 0.27344z"/>
  <use x="70" y="644" xlink:href="#u"/>
  <use x="90.550781" y="644" xlink:href="#b"/>
  <use x="104.359375" y="644" xlink:href="#a"/>
  <use x="123.347656" y="644" xlink:href="#f"/>
  <use x="142.242188" y="644" xlink:href="#d"/>
  <use x="155.628906" y="644" xlink:href="#a"/>
  <use x="174.617188" y="644" xlink:href="#k"/>
  <use x="204.410156" y="644" xlink:href="#j"/>
  <use x="224.453125" y="644" xlink:href="#i"/>
  <use x="252.453125" y="644" xlink:href="#h"/>
  <use x="262.867188" y="644" xlink:href="#e"/>
  <use x="279.46875" y="644" xlink:href="#c"/>
  <use x="298.703125" y="644" xlink:href="#g"/>
  <use x="318.636719" y="644" xlink:href="#t"/>
  <use x="337.734375" y="644" xlink:href="#b"/>
  <use x="351.546875" y="644" xlink:href="#f"/>
  <use x="370.4375" y="644" xlink:href="#e"/>
  <use x="387.039062" y="644" xlink:href="#s"/>
  <use x="70" y="672" xlink:href="#r"/>
  <use x="82.183594" y="672" xlink:href="#b"/>
  <use x="95.992188" y="672" xlink:href="#c"/>
  <use x="115.226562" y="672" xlink:href="#q"/>
  <use x="154.152344" y="672" xlink:href="#d"/>
  <use x="167.535156" y="672" xlink:href="#p"/>
  <use x="187.46875" y="672" xlink:href="#a"/>
  <use x="216.207031" y="672" xlink:href="#o"/>
  <use x="239.640625" y="672" xlink:href="#c"/>
  <use x="258.878906" y="672" xlink:href="#n"/>
  <use x="278.8125" y="672" xlink:href="#g"/>
  <use x="308.492188" y="672" xlink:href="#m"/>
  <use x="329.015625" y="672" xlink:href="#b"/>
  <use x="342.820312" y="672" xlink:href="#c"/>
  <use x="362.058594" y="672" xlink:href="#l"/>
  <use x="371.65625" y="672" xlink:href="#a"/>
  <use x="390.648438" y="672" xlink:href="#e"/>
  <use x="407.242188" y="672" xlink:href="#d"/>
 </g>
</svg>
