<?xml version="1.0" encoding="utf-8"?>
<!-- Generator: Adobe Illustrator 24.1.2, SVG Export Plug-In . SVG Version: 6.00 Build 0)  -->
<svg version="1.1" id="Capa_1" xmlns="http://www.w3.org/2000/svg" xmlns:xlink="http://www.w3.org/1999/xlink" x="0px" y="0px"
	 viewBox="0 0 557.2 557.2" style="enable-background:new 0 0 557.2 557.2;" xml:space="preserve">
<style type="text/css">
	.st0{fill:#4A4BFF;}
</style>
<path class="st0" d="M215.6,408.8c106.7,0,193.2-86.5,193.2-193.2S322.3,22.4,215.6,22.4S22.4,108.9,22.4,215.6
	S108.9,408.8,215.6,408.8L215.6,408.8z M375.8,359.9l178.2,178.1c4.4,4.4,4.4,11.5,0,15.8c-4.4,4.4-11.5,4.4-15.8,0L359.9,375.8
	c-38.2,34.5-88.8,55.4-144.3,55.4C96.5,431.2,0,334.7,0,215.6C0,96.5,96.5,0,215.6,0c119.1,0,215.6,96.5,215.6,215.6
	C431.2,271.1,410.2,321.7,375.8,359.9L375.8,359.9z"/>
</svg>
