<?xml version="1.0" encoding="utf-8"?>
<!-- Generator: Adobe Illustrator 24.1.2, SVG Export Plug-In . SVG Version: 6.00 Build 0)  -->
<svg version="1.1" id="Capa_1" xmlns="http://www.w3.org/2000/svg" xmlns:xlink="http://www.w3.org/1999/xlink" x="0px" y="0px"
	 viewBox="0 0 442.4 442.4" style="enable-background:new 0 0 442.4 442.4;" xml:space="preserve">
<style type="text/css">
	.st0{fill:#7374FF;}
</style>
<path class="st0" d="M221.2,0C99.2,0,0,99.2,0,221.2s99.2,221.2,221.2,221.2s221.2-99.2,221.2-221.2S343.2,0,221.2,0L221.2,0z
	 M221.2,22.4c109.9,0,198.8,88.9,198.8,198.8c0,56.6-23.6,107.6-61.5,143.8c-13.1-52.5-47-94.2-90.3-112
	c27-16.1,45.2-45.5,45.2-79.2c0-50.8-41.4-92.2-92.2-92.2S129,123,129,173.8c0,33.6,18.2,63,45.2,79.2
	c-43.3,17.8-77.3,59.5-90.3,112C46,328.8,22.4,277.8,22.4,221.2C22.4,111.3,111.3,22.4,221.2,22.4L221.2,22.4z M221.2,104
	c38.7,0,69.8,31.1,69.8,69.8s-31.1,69.8-69.8,69.8s-69.8-31.1-69.8-69.8S182.5,104,221.2,104L221.2,104z M221.2,266
	c56.1,0,105.6,47.4,117.9,115.4c-33,24.3-73.7,38.7-117.9,38.7s-84.9-14.4-117.9-38.6C115.6,313.4,165.1,266,221.2,266L221.2,266z"
	/>
</svg>
